<svg width="24" height="24" viewBox="0 0 24 24" fill="none" xmlns="http://www.w3.org/2000/svg">
<g clip-path="url(#clip0_15_155)">
<path fill-rule="evenodd" clip-rule="evenodd" d="M6 6.85714C6.90931 6.85714 7.78139 6.49592 8.42437 5.85294C9.06735 5.20996 9.42857 4.33789 9.42857 3.42857C9.42857 2.51926 9.06735 1.64719 8.42437 1.00421C7.78139 0.361224 6.90931 0 6 0C5.09069 0 4.21862 0.361224 3.57563 1.00421C2.93265 1.64719 2.57143 2.51926 2.57143 3.42857C2.57143 4.33789 2.93265 5.20996 3.57563 5.85294C4.21862 6.49592 5.09069 6.85714 6 6.85714ZM9.50572 17.1429V17.0914C9.50572 15.3943 10.4434 13.9166 11.8286 13.1451C11.4803 11.7198 10.6219 10.4714 9.41548 9.63613C8.20911 8.80087 6.73848 8.43663 5.28172 8.61228C3.82497 8.78794 2.48308 9.49132 1.50983 10.5894C0.536575 11.6875 -0.000560769 13.1041 4.39325e-07 14.5714V16.2857C4.39325e-07 16.513 0.0903063 16.7311 0.251052 16.8918C0.411797 17.0526 0.629815 17.1429 0.857143 17.1429H2.57143L3.33429 23.2491C3.36019 23.4564 3.46088 23.6471 3.61745 23.7853C3.77402 23.9236 3.97569 23.9999 4.18457 24H7.81714C8.02602 23.9999 8.22769 23.9236 8.38426 23.7853C8.54083 23.6471 8.64153 23.4564 8.66743 23.2491L9.42857 17.1429H9.50572ZM17.0177 13.1777C16.9041 13.1777 16.795 13.2229 16.7147 13.3032C16.6343 13.3836 16.5891 13.4926 16.5891 13.6063V14.7223H19.0114V13.608C19.0114 13.4943 18.9663 13.3853 18.8859 13.305C18.8055 13.2246 18.6965 13.1794 18.5829 13.1794L17.0177 13.1777ZM14.0177 13.6063V14.7223C12.7097 14.7223 11.6486 15.7851 11.6486 17.0931V21.6309C11.6486 22.9389 12.7097 24 14.0177 24H21.5811C22.8891 24 23.9503 22.9389 23.9503 21.6309V17.0914C23.9503 15.7834 22.8909 14.7223 21.5829 14.7223V13.608C21.5829 12.8124 21.2668 12.0493 20.7042 11.4867C20.1416 10.9241 19.3785 10.608 18.5829 10.608H17.0177C16.2221 10.608 15.459 10.9241 14.8964 11.4867C14.3338 12.0493 14.0177 12.8124 14.0177 13.608V13.6063Z" fill="white"/>
</g>
<defs>
<clipPath id="clip0_15_155">
<rect width="24" height="24" fill="white"/>
</clipPath>
</defs>
</svg>
