<svg width="21" height="18" viewBox="0 0 21 18" fill="none" xmlns="http://www.w3.org/2000/svg">
<path d="M20.3923 14.8597C20.0038 14.4772 15.296 12.6562 14.4418 12.3127C13.592 11.9752 13.253 11.04 13.253 11.04C13.253 11.04 12.8705 11.2515 12.8705 10.6575C12.8705 10.0627 13.253 11.04 13.6355 8.74646C13.6355 8.74646 14.6968 8.44871 14.486 5.98646H14.231C14.231 5.98646 14.8685 3.35396 14.231 2.46296C13.5913 1.57196 13.3408 0.977965 11.936 0.551965C10.5335 0.126715 11.0435 0.211465 10.025 0.254965C9.00501 0.297715 8.15601 0.849715 8.15601 1.14596C8.15601 1.14596 7.51851 1.18871 7.26501 1.44371C7.01001 1.69871 6.58551 2.88671 6.58551 3.18371C6.58551 3.48071 6.79776 5.47871 7.01001 5.90171L6.75726 5.98421C6.54501 8.44721 7.60626 8.74571 7.60626 8.74571C7.98876 11.0392 8.37126 10.062 8.37126 10.6567C8.37126 11.2507 7.98876 11.0392 7.98876 11.0392C7.98876 11.0392 7.64901 11.9737 6.80001 12.312C5.95101 12.6517 1.23801 14.4772 0.854757 14.859C0.472257 15.249 0.515007 17.031 0.515007 17.031H9.54201L10.2005 14.436L9.61551 13.851L10.6228 12.8422L11.63 13.8502L11.045 14.4352L11.7035 17.0302H20.7305C20.7305 17.0302 20.7778 15.2467 20.3908 14.8575L20.3923 14.8597Z" fill="#34E0A1"/>
</svg>
